<svg xmlns="http://www.w3.org/2000/svg" viewBox="0 0 64 64" role="img" aria-labelledby="title">
  <title>AAI</title>
  <style>.plate{fill:#eef2f7}.letters{fill:#3574c4}@media (prefers-color-scheme:dark){.plate{fill:#1f1f22}.letters{fill:#6e9ee0}}</style>
  <rect class="plate" width="64" height="64" rx="14"/>
  <path class="letters" d="M10.49 44.93Q9.33 44.93 8.67 44.31Q8.00 43.68 8.00 42.59Q8.00 41.91 8.34 40.99L13.10 27.93Q13.63 26.46 14.55 25.76Q15.46 25.07 16.90 25.07Q18.41 25.07 19.34 25.75Q20.27 26.42 20.82 27.93L25.61 40.99Q25.93 41.87 25.93 42.58Q25.93 43.61 25.24 44.27Q24.55 44.93 23.49 44.93Q22.42 44.93 21.82 44.41Q21.22 43.89 20.91 42.71L20.25 40.58L13.65 40.58L13.00 42.63Q12.65 43.86 12.06 44.40Q11.47 44.93 10.49 44.93ZM14.63 36.87L19.18 36.87L16.92 29.45L16.82 29.45ZM30.75 44.93Q29.60 44.93 28.93 44.31Q28.27 43.68 28.27 42.59Q28.27 41.91 28.61 40.99L33.36 27.93Q33.90 26.46 34.81 25.76Q35.73 25.07 37.16 25.07Q38.68 25.07 39.61 25.75Q40.54 26.42 41.09 27.93L45.88 40.99Q46.20 41.87 46.20 42.58Q46.20 43.61 45.51 44.27Q44.82 44.93 43.76 44.93Q42.69 44.93 42.09 44.41Q41.49 43.89 41.17 42.71L40.51 40.58L33.92 40.58L33.27 42.63Q32.92 43.86 32.33 44.40Q31.74 44.93 30.75 44.93ZM34.90 36.87L39.45 36.87L37.19 29.45L37.09 29.45ZM51.55 44.93Q50.39 44.93 49.75 44.26Q49.11 43.59 49.11 42.38L49.11 27.62Q49.11 26.40 49.75 25.73Q50.39 25.07 51.55 25.07Q52.71 25.07 53.36 25.73Q54.00 26.40 54.00 27.62L54.00 42.38Q54.00 43.59 53.36 44.26Q52.71 44.93 51.55 44.93Z"/>
  <path fill="#e8903a" d="M56.19 18.31Q56.19 22.29 60.16 22.29Q56.19 22.29 56.19 26.26Q56.19 22.29 52.21 22.29Q56.19 22.29 56.19 18.31Z"/>
</svg>
